<svg width="60" height="55" viewBox="0 0 60 55" fill="none" xmlns="http://www.w3.org/2000/svg">
<g clip-path="url(#clip0)">
<path d="M59.6264 0.0706709L46.532 1.20271C46.4658 1.20843 46.4027 1.23328 46.3503 1.27427C46.2979 1.31526 46.2584 1.37063 46.2365 1.43371C46.2147 1.49679 46.2114 1.56488 46.2272 1.62977C46.243 1.69465 46.2771 1.75356 46.3254 1.7994L49.6285 4.933L48.8953 5.68578L48.4061 6.18801L45.9225 8.78141C44.9655 9.79598 44.0124 10.8129 43.063 11.8323C42.3829 12.5655 41.7067 13.3029 41.0343 14.0447C39.4245 15.8169 37.8352 17.6094 36.2665 19.422C35.486 20.3312 34.7084 21.2448 33.9422 22.1684C33.7385 22.4137 33.5376 22.662 33.3353 22.9087L32.5161 22.4455L19.7337 15.218L17.6935 14.0649L16.2315 15.6668L14.4022 17.6714L0 33.4512L3.02448 36.4184L18.6075 21.2924H18.6089L27.7311 27.2614L32.3955 30.3137L34.0871 31.4206L34.4745 31.6732L36.6754 29.7335C37.5765 28.9383 38.4636 28.1302 39.3369 27.309C40.2136 26.4893 41.0773 25.6594 41.9382 24.8267C43.657 23.157 45.3505 21.4641 47.0187 19.7482C48.6945 18.038 50.3387 16.2975 51.9786 14.5541L54.4192 11.9189L54.7492 11.5566L55.6121 10.6094L58.7659 13.6013C58.8138 13.6467 58.8735 13.6773 58.938 13.6896C59.0026 13.7019 59.0693 13.6954 59.1303 13.6707C59.1913 13.6461 59.244 13.6044 59.2822 13.5506C59.3203 13.4968 59.3424 13.4331 59.3457 13.3671L59.9996 0.43309C60.002 0.383717 59.994 0.334381 59.9759 0.2884C59.9579 0.242419 59.9303 0.200862 59.8949 0.166524C59.8596 0.132185 59.8173 0.105864 59.771 0.0893298C59.7247 0.0727959 59.6754 0.0664335 59.6264 0.0706709Z" fill="#42A644"/>
<path d="M3.09009 53.7885C3.09052 54.0887 3.20926 54.3764 3.42027 54.5887C3.63128 54.8009 3.91735 54.9204 4.21577 54.9208H12.0188C12.3172 54.9204 12.6033 54.8009 12.8143 54.5887C13.0253 54.3764 13.144 54.0887 13.1445 53.7885V30.8868L3.09009 40.6463V53.7885Z" fill="#42A644"/>
<path d="M17.0332 27.1116V53.7885C17.0336 54.0887 17.1524 54.3764 17.3634 54.5887C17.5744 54.8009 17.8605 54.9204 18.1589 54.9208H25.9619C26.2603 54.9204 26.5464 54.8009 26.7574 54.5887C26.9684 54.3764 27.0871 54.0887 27.0876 53.7885V30.5239L18.9814 25.2202L17.0332 27.1116Z" fill="#42A644"/>
<path d="M34.7525 35.5343L30.9763 33.0677V53.7885C30.9768 54.0887 31.0955 54.3764 31.3065 54.5887C31.5175 54.8009 31.8036 54.9204 32.102 54.9208H39.905C40.2034 54.9204 40.4895 54.8009 40.7005 54.5887C40.9115 54.3764 41.0303 54.0887 41.0307 53.7885V29.9423C40.2811 30.641 39.497 31.3512 38.7 32.0551L34.7525 35.5343Z" fill="#42A644"/>
<path d="M49.2047 21.916C47.6594 23.4986 46.2472 24.9152 44.9194 26.2187V53.7885C44.9199 54.0887 45.0386 54.3764 45.2496 54.5887C45.4606 54.8009 45.7467 54.9204 46.0451 54.9208H53.8481C54.1465 54.9204 54.4326 54.8009 54.6436 54.5887C54.8546 54.3764 54.9733 54.0887 54.9738 53.7885V15.8505L54.2088 16.6766C52.6239 18.3609 50.9328 20.1532 49.2047 21.916Z" fill="#42A644"/>
</g>
<defs>
<clipPath id="clip0">
<rect width="60" height="54.8514" fill="white" transform="translate(0 0.069397)"/>
</clipPath>
</defs>
</svg>
