<svg width="65" height="65" viewBox="0 0 65 65" fill="none" xmlns="http://www.w3.org/2000/svg">
<g clip-path="url(#clip0)">
<path d="M34.8232 2.32318C34.8232 1.70704 34.5784 1.11613 34.1427 0.680444C33.7071 0.244763 33.1161 0 32.5 0C31.8839 0 31.2929 0.244763 30.8573 0.680444C30.4216 1.11613 30.1768 1.70704 30.1768 2.32318V4.64413H34.8232V2.32318ZM34.8232 48.7489H30.1768V55.9059C30.1768 57.1869 20.748 64.8996 20.748 64.8996L26.2558 64.8951L32.5201 58.9298L39.2441 64.9375L44.3145 64.8483L34.821 55.8992V48.7467L34.8232 48.7489ZM61.5186 13.9257C62.4419 13.9257 63.3274 13.5589 63.9803 12.906C64.6332 12.2531 65 11.3676 65 10.4443C65 9.52095 64.6332 8.63543 63.9803 7.98254C63.3274 7.32964 62.4419 6.96285 61.5186 6.96285H3.48143C2.55809 6.96285 1.67258 7.32964 1.01969 7.98254C0.366792 8.63543 0 9.52095 0 10.4443C0 11.3676 0.366792 12.2531 1.01969 12.906C1.67258 13.5589 2.55809 13.9257 3.48143 13.9257H7.01641V41.8329L4.93648 41.7838C3.01724 41.7838 2.22945 42.826 2.22945 44.1048C2.22945 45.3902 3.01054 46.4257 4.93425 46.4257H59.8314C61.7507 46.4257 62.7281 45.3902 62.7281 44.1048C62.7281 41.6633 59.827 41.7838 59.827 41.7838L58.0349 42.0293V13.9235H61.5163L61.5186 13.9257ZM23.2898 37.1419C14.8719 37.1419 13.9279 27.7912 13.9279 27.7912C13.9279 18.6479 23.2184 18.5029 23.2184 18.5029V27.7867H32.5759C32.5759 37.1419 23.2921 37.1419 23.2921 37.1419H23.2898ZM39.5365 27.9295H37.1486V25.5349H39.5365V27.9295ZM39.5365 20.9667H37.1486V18.5676H39.5365V20.9622V20.9667ZM49.7978 27.9295H42.9822C42.6647 27.9295 42.3601 27.8034 42.1356 27.5788C41.9111 27.3543 41.7849 27.0498 41.7849 26.7322C41.7849 26.4147 41.9111 26.1101 42.1356 25.8856C42.3601 25.6611 42.6647 25.5349 42.9822 25.5349H49.8045C50.113 25.5491 50.4042 25.6819 50.6173 25.9055C50.8303 26.1292 50.9488 26.4265 50.9479 26.7354C50.9471 27.0443 50.827 27.341 50.6127 27.5635C50.3984 27.7859 50.1064 27.9171 49.7978 27.9295ZM49.7978 20.9667H42.9822C42.6647 20.9667 42.3601 20.8405 42.1356 20.616C41.9111 20.3914 41.7849 20.0869 41.7849 19.7694C41.7849 19.4518 41.9111 19.1473 42.1356 18.9227C42.3601 18.6982 42.6647 18.5721 42.9822 18.5721H49.8045C49.9616 18.5725 50.117 18.6039 50.262 18.6644C50.4069 18.7249 50.5386 18.8134 50.6493 18.9248C50.7601 19.0362 50.8478 19.1683 50.9075 19.3136C50.9672 19.4589 50.9977 19.6145 50.9973 19.7716C50.9969 19.9287 50.9655 20.0841 50.905 20.2291C50.8444 20.3741 50.756 20.5057 50.6446 20.6164C50.5332 20.7272 50.4011 20.815 50.2558 20.8747C50.1105 20.9344 49.9549 20.9649 49.7978 20.9644V20.9667Z" fill="#5456A9"/>
</g>
<defs>
<clipPath id="clip0">
<rect width="65" height="64.9375" fill="white"/>
</clipPath>
</defs>
</svg>
