<svg width="65" height="66" viewBox="0 0 65 66" fill="none" xmlns="http://www.w3.org/2000/svg">
<g clip-path="url(#clip0)">
<path d="M60.9056 35.6309H4.09428C3.05726 35.6197 2.05515 35.983 1.29425 36.6459C0.533358 37.3088 0.071603 38.2209 0.00405446 39.1944C-0.0201815 39.6986 0.0644269 40.2022 0.252773 40.6747C0.44112 41.1473 0.7293 41.5791 1.09992 41.944C1.47054 42.309 1.91592 42.5995 2.40918 42.798C2.90244 42.9966 3.43335 43.0991 3.96988 43.0993H8.26326L8.27595 43.1113L8.28864 63.9712C8.28864 64.1631 8.32883 64.3532 8.40692 64.5305C8.485 64.7079 8.59945 64.869 8.74374 65.0047C8.88803 65.1405 9.05932 65.2481 9.24783 65.3216C9.43635 65.395 9.6384 65.4329 9.84245 65.4329H55.1575C55.5733 65.4325 55.9719 65.2768 56.2657 65C56.5594 64.7232 56.7243 64.348 56.724 63.9568V43.1113C56.7244 43.1078 56.7262 43.1046 56.7291 43.1024C56.7319 43.1002 56.7356 43.0991 56.7392 43.0993H61.0301C61.5666 43.0993 62.0977 42.997 62.591 42.7985C63.0844 42.6 63.5298 42.3095 63.9005 41.9445C64.2712 41.5795 64.5593 41.1476 64.7476 40.675C64.9359 40.2023 65.0203 39.6986 64.9959 39.1944C64.9287 38.2207 64.4671 37.3084 63.7061 36.6454C62.9451 35.9825 61.9428 35.6194 60.9056 35.6309Z" fill="#0190DE"/>
<path d="M28.758 18.2646C28.7438 18.2202 28.7143 18.1816 28.6742 18.1547C27.8643 17.596 27.2046 16.8668 26.748 16.0253C26.2914 15.1838 26.0505 14.2535 26.0445 13.3087V9.07021C23.8737 8.71664 23.885 6.63782 24.162 5.64261C24.7483 3.99891 25.8686 2.57 27.3649 1.55768C28.8612 0.545373 30.6577 0.000824769 32.5008 0.000950802C33.0976 -0.0104668 33.6917 0.0810299 34.2535 0.270914C35.3354 0.710428 35.1808 1.15049 35.6189 1.51059C36.1152 1.40895 36.7289 1.09814 37.1944 1.28905C37.8872 1.51059 40.3232 3.51312 41.2897 5.24467C42.1526 7.22682 39.872 8.4453 38.9559 8.2835V13.3087C38.9559 14.2544 38.7179 15.1866 38.2613 16.0291C37.8046 16.8716 37.1424 17.6004 36.3288 18.1558C36.2892 18.183 36.2602 18.2218 36.2464 18.266C36.2464 18.266 34.0345 19.1148 32.5 19.1141C30.967 19.1134 28.758 18.2646 28.758 18.2646Z" fill="#0190DE"/>
<path d="M16.173 33.1926H48.8279C48.9337 33.1926 49.0381 33.1708 49.1339 33.1287C49.2297 33.0865 49.3145 33.0251 49.3823 32.9487C49.4501 32.8724 49.4992 32.783 49.5261 32.6868C49.5531 32.5906 49.5573 32.49 49.5383 32.3921C49.2363 30.8159 48.5758 27.4264 48.4235 26.9966C47.5712 24.5977 45.2917 23.6095 42.9688 22.7609C41.1763 22.1062 39.3839 21.4528 37.5915 20.8006L32.5005 25.5884L27.4095 20.8006C25.617 21.454 23.8246 22.1075 22.0322 22.7609C19.7093 23.6095 17.4297 24.5977 16.5775 26.9966C16.4251 27.4264 15.7646 30.8159 15.4626 32.3921C15.4437 32.49 15.4478 32.5906 15.4748 32.6868C15.5018 32.783 15.5509 32.8724 15.6186 32.9488C15.6864 33.0251 15.7712 33.0865 15.867 33.1287C15.9628 33.1708 16.0673 33.1926 16.173 33.1926Z" fill="#0190DE"/>
</g>
<defs>
<clipPath id="clip0">
<rect width="65" height="65.4329" fill="white"/>
</clipPath>
</defs>
</svg>
